# xmcd
#
# Track frame offsets:
#	150
#	14836
#	31054
#	48342
#	63667
#	83638
#	105711
#	121311
#	133715
#	152980
#	170498
#	192279
#	204636
#
# Disc length: 2928 seconds
#
# Revision: 1
# Processed by: cddbd v1.5.2PL0 Copyright (c) Steve Scherf et al.
# Submitted via: EZCDAudioConverter 1.3.4.1
#
DISCID=b40b6e0d
DTITLE=Chuck E. Weiss - Red Beans And Weiss
DYEAR=2014
DGENRE=
TTITLE0=Tupelo Joe
TTITLE1=Shushie
TTITLE2=Boston Blackie
TTITLE3=That Kucklehead Stuff
TTITLE4=Bomb The Tracks
TTITLE5=Exile On Main Street Blues
TTITLE6=Kokomo (Boy Bruce)
TTITLE7=Hey Pendejo
TTITLE8=Dead Man's Shoes
TTITLE9=Old New Song
TTITLE10=The Hink-A-Dink
TTITLE11=Oo Poo Pa Do In The Rebop
TTITLE12=Willy's In The Pee Pee House
EXTD=
EXTT0=
EXTT1=
EXTT2=
EXTT3=
EXTT4=
EXTT5=
EXTT6=
EXTT7=
EXTT8=
EXTT9=
EXTT10=
EXTT11=
EXTT12=
PLAYORDER=
